<svg width="164" height="52" viewBox="0 0 164 52" fill="none" xmlns="http://www.w3.org/2000/svg">
<path d="M17.58 35.44L16.18 31.4C14.7933 31.4 13.3933 31.1867 11.98 30.76C11.6867 32.4667 11.54 33.6933 11.54 34.44C11.54 37.0267 11.94 38.96 12.74 40.24C11.14 41.44 9.47333 42.04 7.74 42.04C6.00667 42.04 4.76667 41.5467 4.02 40.56C3.27333 39.5467 2.9 38.0533 2.9 36.08C2.9 34.08 3.74 28.44 5.42 19.16L3.3 14.88C6.28667 12.96 9.03333 12 11.54 12C13.46 12 14.94 12.4 15.98 13.2C17.98 12.4 19.78 12 21.38 12C23.8333 12 25.78 12.8267 27.22 14.48C28.66 16.1333 29.38 18.12 29.38 20.44C29.38 22.1733 28.94 23.8533 28.06 25.48C27.18 27.08 25.8867 28.3867 24.18 29.4C25.0867 31.9867 26.1 34.2133 27.22 36.08C28.3667 37.9467 29.5 39.1867 30.62 39.8C30.06 40.3867 29.1933 40.8933 28.02 41.32C26.8733 41.7733 25.8333 42 24.9 42C23.0867 42 21.6333 41.5467 20.54 40.64C19.4467 39.7067 18.46 37.9733 17.58 35.44ZM13.74 26.4C15.8733 26.4 17.5267 25.8533 18.7 24.76C19.9 23.6667 20.5 22.4933 20.5 21.24C20.5 19.9867 20.1533 18.9867 19.46 18.24C18.7667 17.4933 17.78 17.12 16.5 17.12C15.8067 17.12 15.1133 17.2133 14.42 17.4C13.5667 22.4933 13.0333 25.48 12.82 26.36C13.0067 26.3867 13.3133 26.4 13.74 26.4Z" fill="#107D5D"/>
<path d="M38.14 20V33.6C38.14 34.72 38.2867 35.4667 38.58 35.84C38.9 36.1867 39.4467 36.36 40.22 36.36C40.9933 36.36 41.6333 36.0267 42.14 35.36C42.6733 34.6933 42.98 33.8533 43.06 32.84H44.74C44.5267 34.4667 44.1533 35.7733 43.62 36.76C43.0867 37.72 42.4867 38.4667 41.82 39C41.1533 39.5067 40.4733 39.84 39.78 40C39.0867 40.16 38.4733 40.24 37.94 40.24C35.8867 40.24 34.4467 39.68 33.62 38.56C32.7933 37.4133 32.38 35.9067 32.38 34.04V20H38.14ZM31.94 14.68C31.94 13.8 32.2467 13.0533 32.86 12.44C33.4733 11.8 34.22 11.48 35.1 11.48C35.98 11.48 36.7267 11.8 37.34 12.44C37.98 13.0533 38.3 13.8 38.3 14.68C38.3 15.56 37.98 16.3067 37.34 16.92C36.7267 17.5333 35.98 17.84 35.1 17.84C34.22 17.84 33.4733 17.5333 32.86 16.92C32.2467 16.3067 31.94 15.56 31.94 14.68ZM52.8841 16C52.7507 15.2267 52.5641 14.6267 52.3241 14.2C52.1107 13.7733 51.6841 13.56 51.0441 13.56C50.7774 13.56 50.5107 13.6133 50.2441 13.72C49.9774 13.8 49.7374 13.96 49.5241 14.2C49.3107 14.44 49.1374 14.7733 49.0041 15.2C48.8707 15.6267 48.8041 16.1733 48.8041 16.84V20H51.7241V21.6H48.8041V43.2C48.8041 44.64 48.6174 45.8 48.2441 46.68C47.8974 47.56 47.4574 48.24 46.9241 48.72C46.3907 49.2267 45.7907 49.56 45.1241 49.72C44.4841 49.9067 43.8841 50 43.3241 50C42.5241 50 41.7641 49.8667 41.0441 49.6C40.3241 49.36 39.6841 49 39.1241 48.52C38.5641 48.0667 38.1241 47.5067 37.8041 46.84C37.4841 46.2 37.3241 45.4933 37.3241 44.72C37.3241 44 37.4707 43.3733 37.7641 42.84C38.0574 42.3333 38.4574 41.8933 38.9641 41.52C39.4707 41.1467 40.0707 40.8133 40.7641 40.52C41.4574 40.2267 42.2174 39.9467 43.0441 39.68V16.84C43.0441 15.4267 43.2174 14.28 43.5641 13.4C43.9374 12.4933 44.4041 11.8 44.9641 11.32C45.5241 10.8133 46.1374 10.48 46.8041 10.32C47.4707 10.1333 48.1107 10.04 48.7241 10.04C49.6574 10.04 50.4841 10.2 51.2041 10.52C51.9241 10.84 52.5374 11.2667 53.0441 11.8C53.5507 12.3333 53.9374 12.96 54.2041 13.68C54.4974 14.4 54.6841 15.1733 54.7641 16H52.8841ZM39.4441 44.44C39.4441 44.7867 39.5107 45.08 39.6441 45.32C39.7774 45.5867 39.9507 45.8 40.1641 45.96C40.3507 46.12 40.5641 46.24 40.8041 46.32C41.0441 46.4 41.2574 46.44 41.4441 46.44C41.8707 46.44 42.2441 46.2133 42.5641 45.76C42.9107 45.3333 43.0841 44.52 43.0841 43.32V41C42.6307 41.16 42.1774 41.3467 41.7241 41.56C41.2974 41.7733 40.9241 42.0133 40.6041 42.28C40.2574 42.5733 39.9774 42.8933 39.7641 43.24C39.5507 43.6133 39.4441 44.0133 39.4441 44.44ZM62.8281 36.88C63.6281 36.88 64.3348 36.7733 64.9481 36.56C65.5615 36.3467 66.1081 36.0667 66.5881 35.72C67.0681 35.3467 67.5081 34.92 67.9081 34.44C68.3081 33.9333 68.6948 33.4 69.0681 32.84H70.4281C70.0548 33.7733 69.6015 34.68 69.0681 35.56C68.5615 36.44 67.9215 37.2267 67.1481 37.92C66.4015 38.6133 65.5215 39.1733 64.5081 39.6C63.4948 40.0267 62.3081 40.24 60.9481 40.24C59.8015 40.24 58.7481 40.0667 57.7881 39.72C56.8281 39.3733 55.9881 38.84 55.2681 38.12C54.5748 37.3733 54.0281 36.4267 53.6281 35.28C53.2548 34.1067 53.0681 32.7067 53.0681 31.08C53.0681 29.9333 53.1881 28.7067 53.4281 27.4C53.6948 26.0667 54.1481 24.84 54.7881 23.72C55.4281 22.6 56.2948 21.6667 57.3881 20.92C58.4815 20.1733 59.8681 19.8 61.5481 19.8C62.8281 19.8 63.8148 20 64.5081 20.4C65.2015 20.8 65.7081 21.2667 66.0281 21.8C66.3748 22.3333 66.5748 22.8533 66.6281 23.36C66.7081 23.8667 66.7481 24.2267 66.7481 24.44C66.7481 25.64 66.5215 26.6933 66.0681 27.6C65.6415 28.5067 65.0548 29.28 64.3081 29.92C63.5881 30.5333 62.7481 31.0133 61.7881 31.36C60.8548 31.68 59.8948 31.8667 58.9081 31.92C58.9348 33.7067 59.2281 34.9867 59.7881 35.76C60.3748 36.5067 61.3881 36.88 62.8281 36.88ZM63.6681 24.48C63.6681 23.5467 63.5081 22.8933 63.1881 22.52C62.8681 22.12 62.5215 21.92 62.1481 21.92C61.6948 21.92 61.2815 22.1467 60.9081 22.6C60.5348 23.0267 60.2015 23.6133 59.9081 24.36C59.6415 25.08 59.4148 25.9333 59.2281 26.92C59.0681 27.9067 58.9615 28.9333 58.9081 30C59.5748 29.9467 60.2015 29.7733 60.7881 29.48C61.3748 29.16 61.8815 28.76 62.3081 28.28C62.7348 27.7733 63.0681 27.2 63.3081 26.56C63.5481 25.92 63.6681 25.2267 63.6681 24.48ZM74.8197 20V33.6C74.8197 34.72 74.9664 35.4667 75.2597 35.84C75.5797 36.1867 76.1264 36.36 76.8997 36.36C77.673 36.36 78.313 36.0267 78.8197 35.36C79.353 34.6933 79.6597 33.8533 79.7397 32.84H81.4197C81.2064 34.4667 80.833 35.7733 80.2997 36.76C79.7664 37.72 79.1664 38.4667 78.4997 39C77.833 39.5067 77.153 39.84 76.4597 40C75.7664 40.16 75.153 40.24 74.6197 40.24C72.5664 40.24 71.1264 39.68 70.2997 38.56C69.473 37.4133 69.0597 35.9067 69.0597 34.04V20H74.8197ZM68.6197 14.68C68.6197 13.8 68.9264 13.0533 69.5397 12.44C70.153 11.8 70.8997 11.48 71.7797 11.48C72.6597 11.48 73.4064 11.8 74.0197 12.44C74.6597 13.0533 74.9797 13.8 74.9797 14.68C74.9797 15.56 74.6597 16.3067 74.0197 16.92C73.4064 17.5333 72.6597 17.84 71.7797 17.84C70.8997 17.84 70.153 17.5333 69.5397 16.92C68.9264 16.3067 68.6197 15.56 68.6197 14.68ZM85.4838 20V22.48C86.0704 21.7867 86.7238 21.1733 87.4438 20.64C88.1638 20.08 88.9504 19.8 89.8038 19.8C90.3104 19.8 90.7638 19.9067 91.1638 20.12C91.5904 20.3333 91.9504 20.6133 92.2438 20.96C92.5638 21.3067 92.8038 21.6933 92.9638 22.12C93.1504 22.52 93.2438 22.9333 93.2438 23.36C93.2438 23.9467 93.0571 24.4933 92.6838 25C92.3371 25.48 91.7504 25.72 90.9238 25.72C90.3104 25.72 89.8838 25.5867 89.6438 25.32C89.4038 25.0533 89.2171 24.7733 89.0838 24.48C88.9504 24.16 88.8038 23.8667 88.6438 23.6C88.5104 23.3333 88.2571 23.2 87.8838 23.2C87.4838 23.2 87.0838 23.36 86.6838 23.68C86.3104 23.9733 85.9104 24.3467 85.4838 24.8V40H79.7238V20H85.4838ZM100.523 20V33.6C100.523 34.72 100.669 35.4667 100.963 35.84C101.283 36.1867 101.829 36.36 102.603 36.36C103.376 36.36 104.016 36.0267 104.523 35.36C105.056 34.6933 105.363 33.8533 105.443 32.84H107.123C106.909 34.4667 106.536 35.7733 106.003 36.76C105.469 37.72 104.869 38.4667 104.203 39C103.536 39.5067 102.856 39.84 102.163 40C101.469 40.16 100.856 40.24 100.323 40.24C98.2695 40.24 96.8295 39.68 96.0028 38.56C95.1761 37.4133 94.7628 35.9067 94.7628 34.04V20H100.523ZM94.3228 14.68C94.3228 13.8 94.6295 13.0533 95.2428 12.44C95.8561 11.8 96.6028 11.48 97.4828 11.48C98.3628 11.48 99.1095 11.8 99.7228 12.44C100.363 13.0533 100.683 13.8 100.683 14.68C100.683 15.56 100.363 16.3067 99.7228 16.92C99.1095 17.5333 98.3628 17.84 97.4828 17.84C96.6028 17.84 95.8561 17.5333 95.2428 16.92C94.6295 16.3067 94.3228 15.56 94.3228 14.68ZM115.627 27.92C115.627 26.32 115.44 25.1867 115.067 24.52C114.72 23.8267 114.214 23.48 113.547 23.48C113.147 23.48 112.8 23.5867 112.507 23.8C112.24 24.0133 112.014 24.2933 111.827 24.64C111.64 24.9867 111.494 25.3867 111.387 25.84C111.28 26.2667 111.214 26.7067 111.187 27.16V40H105.427V20H111.187V22.08C111.8 21.1467 112.494 20.5467 113.267 20.28C114.04 19.9867 114.774 19.84 115.467 19.84C116.214 19.84 116.92 19.96 117.587 20.2C118.28 20.44 118.88 20.8533 119.387 21.44C119.92 22 120.334 22.76 120.627 23.72C120.92 24.6533 121.067 25.8133 121.067 27.2C121.067 27.5467 121.054 27.9867 121.027 28.52C121.027 29.0267 121.014 29.5467 120.987 30.08C120.96 30.6133 120.934 31.1333 120.907 31.64C120.907 32.1467 120.907 32.5733 120.907 32.92C120.907 34.0667 121.027 34.9333 121.267 35.52C121.507 36.08 122.04 36.36 122.867 36.36C123.774 36.36 124.4 36.0267 124.747 35.36C125.12 34.6933 125.414 33.8533 125.627 32.84H127.307C127.094 34.44 126.774 35.7333 126.347 36.72C125.92 37.68 125.44 38.4267 124.907 38.96C124.374 39.4667 123.8 39.8133 123.187 40C122.574 40.16 121.974 40.24 121.387 40.24C119.334 40.24 117.84 39.56 116.907 38.2C116 36.84 115.547 35.0267 115.547 32.76C115.547 32.52 115.547 32.1867 115.547 31.76C115.574 31.3067 115.587 30.84 115.587 30.36C115.587 29.88 115.587 29.4267 115.587 29C115.614 28.5467 115.627 28.1867 115.627 27.92ZM135.782 27.88C135.782 26.28 135.609 25.1467 135.262 24.48C134.916 23.8133 134.409 23.48 133.742 23.48C133.342 23.48 132.996 23.5867 132.702 23.8C132.436 24.0133 132.209 24.2933 132.022 24.64C131.836 24.9867 131.689 25.3867 131.582 25.84C131.476 26.2667 131.409 26.7067 131.382 27.16V40H125.622V12.8L131.382 12V22.08C131.996 21.1467 132.689 20.5467 133.462 20.28C134.236 19.9867 134.969 19.84 135.662 19.84C136.409 19.84 137.116 19.96 137.782 20.2C138.476 20.44 139.076 20.8533 139.582 21.44C140.116 22 140.529 22.76 140.822 23.72C141.116 24.6533 141.262 25.8133 141.262 27.2C141.262 27.5467 141.249 27.9867 141.222 28.52C141.222 29.0267 141.209 29.5467 141.182 30.08C141.156 30.6133 141.129 31.1333 141.102 31.64C141.102 32.1467 141.102 32.5733 141.102 32.92C141.102 34.0667 141.236 34.9333 141.502 35.52C141.796 36.08 142.356 36.36 143.182 36.36C143.636 36.36 144.009 36.28 144.302 36.12C144.596 35.9333 144.836 35.68 145.022 35.36C145.209 35.04 145.356 34.6667 145.462 34.24C145.596 33.8133 145.716 33.3467 145.822 32.84H147.502C147.289 34.44 146.969 35.7333 146.542 36.72C146.116 37.68 145.622 38.4267 145.062 38.96C144.529 39.4667 143.956 39.8133 143.342 40C142.729 40.16 142.129 40.24 141.542 40.24C139.489 40.24 137.996 39.56 137.062 38.2C136.156 36.84 135.702 35.0267 135.702 32.76C135.702 32.52 135.702 32.1867 135.702 31.76C135.729 31.3067 135.742 30.84 135.742 30.36C135.742 29.88 135.742 29.4133 135.742 28.96C135.769 28.5067 135.782 28.1467 135.782 27.88ZM153.698 19.8C155.351 19.8 156.698 20.2133 157.738 21.04C158.778 21.84 159.524 23.12 159.978 24.88C160.218 24.7467 160.431 24.5733 160.618 24.36C160.831 24.12 161.004 23.88 161.138 23.64C161.298 23.3733 161.431 23.12 161.538 22.88C161.644 22.64 161.724 22.44 161.778 22.28H163.058C162.951 22.68 162.818 23.12 162.658 23.6C162.524 24.08 162.351 24.56 162.138 25.04C161.951 25.4933 161.711 25.9333 161.418 26.36C161.124 26.7867 160.764 27.16 160.338 27.48C160.364 27.7467 160.378 28.0267 160.378 28.32C160.404 28.5867 160.418 28.8667 160.418 29.16C160.418 30.7067 160.284 32.16 160.018 33.52C159.751 34.8533 159.298 36.0267 158.658 37.04C158.044 38.0267 157.244 38.8133 156.258 39.4C155.271 39.96 154.058 40.24 152.618 40.24C151.631 40.24 150.684 40.0933 149.778 39.8C148.898 39.48 148.111 38.9733 147.418 38.28C146.724 37.56 146.164 36.6267 145.738 35.48C145.338 34.3067 145.138 32.88 145.138 31.2C145.138 30.0533 145.258 28.8267 145.498 27.52C145.738 26.1867 146.178 24.9467 146.818 23.8C147.458 22.6533 148.324 21.7067 149.418 20.96C150.538 20.1867 151.964 19.8 153.698 19.8ZM153.738 36.48C154.298 36.48 154.778 36.2933 155.178 35.92C155.604 35.52 155.951 34.9867 156.218 34.32C156.484 33.6267 156.671 32.8133 156.778 31.88C156.911 30.9467 156.978 29.9333 156.978 28.84V28.28C155.911 28.04 155.378 27.2533 155.378 25.92C155.378 25.0667 155.724 24.5067 156.418 24.24C156.124 23.3867 155.764 22.84 155.338 22.6C154.938 22.3333 154.591 22.2 154.298 22.2C153.711 22.2 153.204 22.48 152.778 23.04C152.378 23.5733 152.044 24.2667 151.778 25.12C151.511 25.9467 151.311 26.8667 151.178 27.88C151.071 28.8933 151.018 29.8667 151.018 30.8C151.018 32 151.098 32.9733 151.258 33.72C151.444 34.4667 151.671 35.04 151.938 35.44C152.204 35.84 152.498 36.12 152.818 36.28C153.138 36.4133 153.444 36.48 153.738 36.48Z" fill="#F79B3B"/>
</svg>
