<svg width="326" height="104" viewBox="0 0 326 104" fill="none" xmlns="http://www.w3.org/2000/svg">
<path d="M34.66 69.88L31.86 61.8C29.0867 61.8 26.2867 61.3733 23.46 60.52C22.8733 63.9333 22.58 66.3867 22.58 67.88C22.58 73.0533 23.38 76.92 24.98 79.48C21.78 81.88 18.4467 83.08 14.98 83.08C11.5133 83.08 9.03333 82.0933 7.54 80.12C6.04667 78.0933 5.3 75.1067 5.3 71.16C5.3 67.16 6.98 55.88 10.34 37.32L6.1 28.76C12.0733 24.92 17.5667 23 22.58 23C26.42 23 29.38 23.8 31.46 25.4C35.46 23.8 39.06 23 42.26 23C47.1667 23 51.06 24.6533 53.94 27.96C56.82 31.2667 58.26 35.24 58.26 39.88C58.26 43.3467 57.38 46.7067 55.62 49.96C53.86 53.16 51.2733 55.7733 47.86 57.8C49.6733 62.9733 51.7 67.4267 53.94 71.16C56.2333 74.8933 58.5 77.3733 60.74 78.6C59.62 79.7733 57.8867 80.7867 55.54 81.64C53.2467 82.5467 51.1667 83 49.3 83C45.6733 83 42.7667 82.0933 40.58 80.28C38.3933 78.4133 36.42 74.9467 34.66 69.88ZM26.98 51.8C31.2467 51.8 34.5533 50.7067 36.9 48.52C39.3 46.3333 40.5 43.9867 40.5 41.48C40.5 38.9733 39.8067 36.9733 38.42 35.48C37.0333 33.9867 35.06 33.24 32.5 33.24C31.1133 33.24 29.7267 33.4267 28.34 33.8C26.6333 43.9867 25.5667 49.96 25.14 51.72C25.5133 51.7733 26.1267 51.8 26.98 51.8Z" fill="#107D5D"/>
<path d="M74.78 40V67.2C74.78 69.44 75.0733 70.9333 75.66 71.68C76.3 72.3733 77.3933 72.72 78.94 72.72C80.4867 72.72 81.7667 72.0533 82.78 70.72C83.8467 69.3867 84.46 67.7067 84.62 65.68H87.98C87.5533 68.9333 86.8067 71.5467 85.74 73.52C84.6733 75.44 83.4733 76.9333 82.14 78C80.8067 79.0133 79.4467 79.68 78.06 80C76.6733 80.32 75.4467 80.48 74.38 80.48C70.2733 80.48 67.3933 79.36 65.74 77.12C64.0867 74.8267 63.26 71.8133 63.26 68.08V40H74.78ZM62.38 29.36C62.38 27.6 62.9933 26.1067 64.22 24.88C65.4467 23.6 66.94 22.96 68.7 22.96C70.46 22.96 71.9533 23.6 73.18 24.88C74.46 26.1067 75.1 27.6 75.1 29.36C75.1 31.12 74.46 32.6133 73.18 33.84C71.9533 35.0667 70.46 35.68 68.7 35.68C66.94 35.68 65.4467 35.0667 64.22 33.84C62.9933 32.6133 62.38 31.12 62.38 29.36ZM104.268 32C104.001 30.4533 103.628 29.2533 103.148 28.4C102.721 27.5467 101.868 27.12 100.588 27.12C100.055 27.12 99.5215 27.2267 98.9881 27.44C98.4548 27.6 97.9748 27.92 97.5481 28.4C97.1215 28.88 96.7748 29.5467 96.5081 30.4C96.2415 31.2533 96.1081 32.3467 96.1081 33.68V40H101.948V43.2H96.1081V86.4C96.1081 89.28 95.7348 91.6 94.9881 93.36C94.2948 95.12 93.4148 96.48 92.3481 97.44C91.2815 98.4533 90.0815 99.12 88.7481 99.44C87.4681 99.8133 86.2681 100 85.1481 100C83.5481 100 82.0281 99.7333 80.5881 99.2C79.1481 98.72 77.8681 98 76.7481 97.04C75.6281 96.1333 74.7481 95.0133 74.1081 93.68C73.4681 92.4 73.1481 90.9867 73.1481 89.44C73.1481 88 73.4415 86.7467 74.0281 85.68C74.6148 84.6667 75.4148 83.7867 76.4281 83.04C77.4415 82.2933 78.6415 81.6267 80.0281 81.04C81.4148 80.4533 82.9348 79.8933 84.5881 79.36V33.68C84.5881 30.8533 84.9348 28.56 85.6281 26.8C86.3748 24.9867 87.3081 23.6 88.4281 22.64C89.5481 21.6267 90.7748 20.96 92.1081 20.64C93.4415 20.2667 94.7215 20.08 95.9481 20.08C97.8148 20.08 99.4681 20.4 100.908 21.04C102.348 21.68 103.575 22.5333 104.588 23.6C105.601 24.6667 106.375 25.92 106.908 27.36C107.495 28.8 107.868 30.3467 108.028 32H104.268ZM77.3881 88.88C77.3881 89.5733 77.5215 90.16 77.7881 90.64C78.0548 91.1733 78.4015 91.6 78.8281 91.92C79.2015 92.24 79.6281 92.48 80.1081 92.64C80.5881 92.8 81.0148 92.88 81.3881 92.88C82.2415 92.88 82.9881 92.4267 83.6281 91.52C84.3215 90.6667 84.6681 89.04 84.6681 86.64V82C83.7615 82.32 82.8548 82.6933 81.9481 83.12C81.0948 83.5467 80.3481 84.0267 79.7081 84.56C79.0148 85.1467 78.4548 85.7867 78.0281 86.48C77.6015 87.2267 77.3881 88.0267 77.3881 88.88ZM124.156 73.76C125.756 73.76 127.17 73.5467 128.396 73.12C129.623 72.6933 130.716 72.1333 131.676 71.44C132.636 70.6933 133.516 69.84 134.316 68.88C135.116 67.8667 135.89 66.8 136.636 65.68H139.356C138.61 67.5467 137.703 69.36 136.636 71.12C135.623 72.88 134.343 74.4533 132.796 75.84C131.303 77.2267 129.543 78.3467 127.516 79.2C125.49 80.0533 123.116 80.48 120.396 80.48C118.103 80.48 115.996 80.1333 114.076 79.44C112.156 78.7467 110.476 77.68 109.036 76.24C107.65 74.7467 106.556 72.8533 105.756 70.56C105.01 68.2133 104.636 65.4133 104.636 62.16C104.636 59.8667 104.876 57.4133 105.356 54.8C105.89 52.1333 106.796 49.68 108.076 47.44C109.356 45.2 111.09 43.3333 113.276 41.84C115.463 40.3467 118.236 39.6 121.596 39.6C124.156 39.6 126.13 40 127.516 40.8C128.903 41.6 129.916 42.5333 130.556 43.6C131.25 44.6667 131.65 45.7067 131.756 46.72C131.916 47.7333 131.996 48.4533 131.996 48.88C131.996 51.28 131.543 53.3867 130.636 55.2C129.783 57.0133 128.61 58.56 127.116 59.84C125.676 61.0667 123.996 62.0267 122.076 62.72C120.21 63.36 118.29 63.7333 116.316 63.84C116.37 67.4133 116.956 69.9733 118.076 71.52C119.25 73.0133 121.276 73.76 124.156 73.76ZM125.836 48.96C125.836 47.0933 125.516 45.7867 124.876 45.04C124.236 44.24 123.543 43.84 122.796 43.84C121.89 43.84 121.063 44.2933 120.316 45.2C119.57 46.0533 118.903 47.2267 118.316 48.72C117.783 50.16 117.33 51.8667 116.956 53.84C116.636 55.8133 116.423 57.8667 116.316 60C117.65 59.8933 118.903 59.5467 120.076 58.96C121.25 58.32 122.263 57.52 123.116 56.56C123.97 55.5467 124.636 54.4 125.116 53.12C125.596 51.84 125.836 50.4533 125.836 48.96ZM148.139 40V67.2C148.139 69.44 148.433 70.9333 149.019 71.68C149.659 72.3733 150.753 72.72 152.299 72.72C153.846 72.72 155.126 72.0533 156.139 70.72C157.206 69.3867 157.819 67.7067 157.979 65.68H161.339C160.913 68.9333 160.166 71.5467 159.099 73.52C158.033 75.44 156.833 76.9333 155.499 78C154.166 79.0133 152.806 79.68 151.419 80C150.033 80.32 148.806 80.48 147.739 80.48C143.633 80.48 140.753 79.36 139.099 77.12C137.446 74.8267 136.619 71.8133 136.619 68.08V40H148.139ZM135.739 29.36C135.739 27.6 136.353 26.1067 137.579 24.88C138.806 23.6 140.299 22.96 142.059 22.96C143.819 22.96 145.313 23.6 146.539 24.88C147.819 26.1067 148.459 27.6 148.459 29.36C148.459 31.12 147.819 32.6133 146.539 33.84C145.313 35.0667 143.819 35.68 142.059 35.68C140.299 35.68 138.806 35.0667 137.579 33.84C136.353 32.6133 135.739 31.12 135.739 29.36ZM169.468 40V44.96C170.641 43.5733 171.948 42.3467 173.388 41.28C174.828 40.16 176.401 39.6 178.108 39.6C179.121 39.6 180.028 39.8133 180.828 40.24C181.681 40.6667 182.401 41.2267 182.988 41.92C183.628 42.6133 184.108 43.3867 184.428 44.24C184.801 45.04 184.988 45.8667 184.988 46.72C184.988 47.8933 184.614 48.9867 183.868 50C183.174 50.96 182.001 51.44 180.348 51.44C179.121 51.44 178.268 51.1733 177.788 50.64C177.308 50.1067 176.934 49.5467 176.668 48.96C176.401 48.32 176.108 47.7333 175.788 47.2C175.521 46.6667 175.014 46.4 174.268 46.4C173.468 46.4 172.668 46.72 171.868 47.36C171.121 47.9467 170.321 48.6933 169.468 49.6V80H157.948V40H169.468ZM199.546 40V67.2C199.546 69.44 199.839 70.9333 200.426 71.68C201.066 72.3733 202.159 72.72 203.706 72.72C205.252 72.72 206.532 72.0533 207.546 70.72C208.612 69.3867 209.226 67.7067 209.386 65.68H212.746C212.319 68.9333 211.572 71.5467 210.506 73.52C209.439 75.44 208.239 76.9333 206.906 78C205.572 79.0133 204.212 79.68 202.826 80C201.439 80.32 200.212 80.48 199.146 80.48C195.039 80.48 192.159 79.36 190.506 77.12C188.852 74.8267 188.026 71.8133 188.026 68.08V40H199.546ZM187.146 29.36C187.146 27.6 187.759 26.1067 188.986 24.88C190.212 23.6 191.706 22.96 193.466 22.96C195.226 22.96 196.719 23.6 197.946 24.88C199.226 26.1067 199.866 27.6 199.866 29.36C199.866 31.12 199.226 32.6133 197.946 33.84C196.719 35.0667 195.226 35.68 193.466 35.68C191.706 35.68 190.212 35.0667 188.986 33.84C187.759 32.6133 187.146 31.12 187.146 29.36ZM229.754 55.84C229.754 52.64 229.38 50.3733 228.634 49.04C227.94 47.6533 226.927 46.96 225.594 46.96C224.794 46.96 224.1 47.1733 223.514 47.6C222.98 48.0267 222.527 48.5867 222.154 49.28C221.78 49.9733 221.487 50.7733 221.274 51.68C221.06 52.5333 220.927 53.4133 220.874 54.32V80H209.354V40H220.874V44.16C222.1 42.2933 223.487 41.0933 225.034 40.56C226.58 39.9733 228.047 39.68 229.434 39.68C230.927 39.68 232.34 39.92 233.674 40.4C235.06 40.88 236.26 41.7067 237.274 42.88C238.34 44 239.167 45.52 239.754 47.44C240.34 49.3067 240.634 51.6267 240.634 54.4C240.634 55.0933 240.607 55.9733 240.554 57.04C240.554 58.0533 240.527 59.0933 240.474 60.16C240.42 61.2267 240.367 62.2667 240.314 63.28C240.314 64.2933 240.314 65.1467 240.314 65.84C240.314 68.1333 240.554 69.8667 241.034 71.04C241.514 72.16 242.58 72.72 244.234 72.72C246.047 72.72 247.3 72.0533 247.994 70.72C248.74 69.3867 249.327 67.7067 249.754 65.68H253.114C252.687 68.88 252.047 71.4667 251.194 73.44C250.34 75.36 249.38 76.8533 248.314 77.92C247.247 78.9333 246.1 79.6267 244.874 80C243.647 80.32 242.447 80.48 241.274 80.48C237.167 80.48 234.18 79.12 232.314 76.4C230.5 73.68 229.594 70.0533 229.594 65.52C229.594 65.04 229.594 64.3733 229.594 63.52C229.647 62.6133 229.674 61.68 229.674 60.72C229.674 59.76 229.674 58.8533 229.674 58C229.727 57.0933 229.754 56.3733 229.754 55.84ZM270.064 55.76C270.064 52.56 269.718 50.2933 269.024 48.96C268.331 47.6267 267.318 46.96 265.984 46.96C265.184 46.96 264.491 47.1733 263.904 47.6C263.371 48.0267 262.918 48.5867 262.544 49.28C262.171 49.9733 261.878 50.7733 261.664 51.68C261.451 52.5333 261.318 53.4133 261.264 54.32V80H249.744V25.6L261.264 24V44.16C262.491 42.2933 263.878 41.0933 265.424 40.56C266.971 39.9733 268.438 39.68 269.824 39.68C271.318 39.68 272.731 39.92 274.064 40.4C275.451 40.88 276.651 41.7067 277.664 42.88C278.731 44 279.558 45.52 280.144 47.44C280.731 49.3067 281.024 51.6267 281.024 54.4C281.024 55.0933 280.998 55.9733 280.944 57.04C280.944 58.0533 280.918 59.0933 280.864 60.16C280.811 61.2267 280.758 62.2667 280.704 63.28C280.704 64.2933 280.704 65.1467 280.704 65.84C280.704 68.1333 280.971 69.8667 281.504 71.04C282.091 72.16 283.211 72.72 284.864 72.72C285.771 72.72 286.518 72.56 287.104 72.24C287.691 71.8667 288.171 71.36 288.544 70.72C288.918 70.08 289.211 69.3333 289.424 68.48C289.691 67.6267 289.931 66.6933 290.144 65.68H293.504C293.078 68.88 292.438 71.4667 291.584 73.44C290.731 75.36 289.744 76.8533 288.624 77.92C287.558 78.9333 286.411 79.6267 285.184 80C283.958 80.32 282.758 80.48 281.584 80.48C277.478 80.48 274.491 79.12 272.624 76.4C270.811 73.68 269.904 70.0533 269.904 65.52C269.904 65.04 269.904 64.3733 269.904 63.52C269.958 62.6133 269.984 61.68 269.984 60.72C269.984 59.76 269.984 58.8267 269.984 57.92C270.038 57.0133 270.064 56.2933 270.064 55.76ZM305.895 39.6C309.202 39.6 311.895 40.4267 313.975 42.08C316.055 43.68 317.548 46.24 318.455 49.76C318.935 49.4933 319.362 49.1467 319.735 48.72C320.162 48.24 320.508 47.76 320.775 47.28C321.095 46.7467 321.362 46.24 321.575 45.76C321.788 45.28 321.948 44.88 322.055 44.56H324.615C324.402 45.36 324.135 46.24 323.815 47.2C323.548 48.16 323.202 49.12 322.775 50.08C322.402 50.9867 321.922 51.8667 321.335 52.72C320.748 53.5733 320.028 54.32 319.175 54.96C319.228 55.4933 319.255 56.0533 319.255 56.64C319.308 57.1733 319.335 57.7333 319.335 58.32C319.335 61.4133 319.068 64.32 318.535 67.04C318.002 69.7067 317.095 72.0533 315.815 74.08C314.588 76.0533 312.988 77.6267 311.015 78.8C309.042 79.92 306.615 80.48 303.735 80.48C301.762 80.48 299.868 80.1867 298.055 79.6C296.295 78.96 294.722 77.9467 293.335 76.56C291.948 75.12 290.828 73.2533 289.975 70.96C289.175 68.6133 288.775 65.76 288.775 62.4C288.775 60.1067 289.015 57.6533 289.495 55.04C289.975 52.3733 290.855 49.8933 292.135 47.6C293.415 45.3067 295.148 43.4133 297.335 41.92C299.575 40.3733 302.428 39.6 305.895 39.6ZM305.975 72.96C307.095 72.96 308.055 72.5867 308.855 71.84C309.708 71.04 310.402 69.9733 310.935 68.64C311.468 67.2533 311.842 65.6267 312.055 63.76C312.322 61.8933 312.455 59.8667 312.455 57.68V56.56C310.322 56.08 309.255 54.5067 309.255 51.84C309.255 50.1333 309.948 49.0133 311.335 48.48C310.748 46.7733 310.028 45.68 309.175 45.2C308.375 44.6667 307.682 44.4 307.095 44.4C305.922 44.4 304.908 44.96 304.055 46.08C303.255 47.1467 302.588 48.5333 302.055 50.24C301.522 51.8933 301.122 53.7333 300.855 55.76C300.642 57.7867 300.535 59.7333 300.535 61.6C300.535 64 300.695 65.9467 301.015 67.44C301.388 68.9333 301.842 70.08 302.375 70.88C302.908 71.68 303.495 72.24 304.135 72.56C304.775 72.8267 305.388 72.96 305.975 72.96Z" fill="white"/>
</svg>
